<?xml version="1.0" standalone="no"?>
<!DOCTYPE svg PUBLIC "-//W3C//DTD SVG 20010904//EN"
 "http://www.w3.org/TR/2001/REC-SVG-20010904/DTD/svg10.dtd">
<svg version="1.0" xmlns="http://www.w3.org/2000/svg"
 width="800.000000pt" height="800.000000pt" viewBox="0 0 800.000000 800.000000"
 preserveAspectRatio="xMidYMid meet">
<metadata>
Created by potrace 1.11, written by Peter Selinger 2001-2013
</metadata>
<g transform="translate(0.000000,800.000000) scale(0.100000,-0.100000)"
fill="#000000" stroke="none">
<path d="M1830 5825 l0 -1525 345 0 345 0 0 1525 0 1525 -345 0 -345 0 0
-1525z"/>
<path d="M5490 5825 l0 -1525 340 0 340 0 0 1525 0 1525 -340 0 -340 0 0
-1525z"/>
<path d="M920 5165 l0 -865 340 0 340 0 0 865 0 865 -340 0 -340 0 0 -865z"/>
<path d="M2750 5165 l0 -865 340 0 340 0 0 865 0 865 -340 0 -340 0 0 -865z"/>
<path d="M4570 5165 l0 -865 345 0 345 0 0 865 0 865 -345 0 -345 0 0 -865z"/>
<path d="M6400 5165 l0 -865 345 0 345 0 0 865 0 865 -345 0 -345 0 0 -865z"/>
<path d="M0 4640 l0 -340 345 0 345 0 0 340 0 340 -345 0 -345 0 0 -340z"/>
<path d="M3660 4640 l0 -340 345 0 345 0 0 340 0 340 -345 0 -345 0 0 -340z"/>
<path d="M7320 4640 l0 -340 340 0 340 0 0 340 0 340 -340 0 -340 0 0 -340z"/>
<path d="M0 3720 l0 -340 340 0 340 0 0 340 0 340 -340 0 -340 0 0 -340z"/>
<path d="M920 3720 l0 -340 340 0 340 0 0 340 0 340 -340 0 -340 0 0 -340z"/>
<path d="M1830 3090 l0 -970 345 0 345 0 0 970 0 970 -345 0 -345 0 0 -970z"/>
<path d="M2750 2355 l0 -1705 340 0 340 0 0 1705 0 1705 -340 0 -340 0 0
-1705z"/>
<path d="M3660 3090 l0 -970 345 0 345 0 0 970 0 970 -345 0 -345 0 0 -970z"/>
<path d="M4580 3720 l0 -340 340 0 340 0 0 340 0 340 -340 0 -340 0 0 -340z"/>
<path d="M5480 3720 l0 -340 345 0 345 0 0 340 0 340 -345 0 -345 0 0 -340z"/>
<path d="M6400 3720 l0 -340 345 0 345 0 0 340 0 340 -345 0 -345 0 0 -340z"/>
<path d="M7310 3720 l0 -340 340 0 340 0 0 340 0 340 -340 0 -340 0 0 -340z"/>
</g>
</svg>
